<?xml version="1.0" encoding="UTF-8" standalone="no"?>
<!-- Created with Inkscape (http://www.inkscape.org/) -->

<svg
   xmlns:dc="http://purl.org/dc/elements/1.1/"
   xmlns:cc="http://creativecommons.org/ns#"
   xmlns:rdf="http://www.w3.org/1999/02/22-rdf-syntax-ns#"
   xmlns:svg="http://www.w3.org/2000/svg"
   xmlns="http://www.w3.org/2000/svg"
   xmlns:sodipodi="http://sodipodi.sourceforge.net/DTD/sodipodi-0.dtd"
   xmlns:inkscape="http://www.inkscape.org/namespaces/inkscape"
   id="svg3004"
   version="1.1"
   inkscape:version="0.48.4 r9939"
   width="183.7825"
   height="71.1975"
   xml:space="preserve"
   sodipodi:docname="UNI_Bonn_Logo_Standard_RZ.ai"><metadata
     id="metadata3010"><rdf:RDF><cc:Work
         rdf:about=""><dc:format>image/svg+xml</dc:format><dc:type
           rdf:resource="http://purl.org/dc/dcmitype/StillImage" /><dc:title></dc:title></cc:Work></rdf:RDF></metadata><defs
     id="defs3008"><clipPath
       clipPathUnits="userSpaceOnUse"
       id="clipPath3018"><path
         d="m 0,56.958 147.026,0 L 147.026,0 0,0 0,56.958 z"
         id="path3020" /></clipPath></defs><sodipodi:namedview
     pagecolor="#ffffff"
     bordercolor="#666666"
     borderopacity="1"
     objecttolerance="10"
     gridtolerance="10"
     guidetolerance="10"
     inkscape:pageopacity="0"
     inkscape:pageshadow="2"
     inkscape:window-width="1920"
     inkscape:window-height="1145"
     id="namedview3006"
     showgrid="false"
     inkscape:zoom="6.752397"
     inkscape:cx="81.546031"
     inkscape:cy="32.727559"
     inkscape:window-x="0"
     inkscape:window-y="27"
     inkscape:window-maximized="1"
     inkscape:current-layer="g3012" /><g
     id="g3012"
     inkscape:groupmode="layer"
     inkscape:label="UNI_Bonn_Logo_Standard_RZ"
     transform="matrix(1.25,0,0,-1.25,0,71.1975)"><g
       id="g3014"><g
         id="g3016"
         clip-path="url(#clipPath3018)"><g
           id="g3022"
           transform="translate(116.942,41.2349)"><path
             d="m 0,0 c 4.722,5.559 7.378,10.12 9.502,15.723 l -36.386,0 0,-31.435 C -19.686,-14.741 -9.592,-11.294 0,0"
             style="fill:#0a55a1;fill-opacity:1;fill-rule:nonzero;stroke:none"
             id="path3024" /></g><path
           d="m 90.063,0 56.963,0 0,16.012 -56.963,0 0,-16.012 z"
           style="fill:#fbbb00;fill-opacity:1;fill-rule:nonzero;stroke:none"
           id="path3026" /><g
           id="g3028"
           transform="translate(147.0211,56.958)"><path
             d="m 0,0 -18.197,0 c -2.179,-5.927 -5.489,-11.923 -10.518,-17.844 -9.903,-11.658 -20.868,-15.169 -28.248,-16.142 l 0,-4.423 56.963,0 L 0,0 z"
             style="fill:#949387;fill-opacity:1;fill-rule:nonzero;stroke:none"
             id="path3030" /></g><g
           id="g3032"
           transform="translate(96.6032,4.2818)"><path
             d="m 0,0 c 1.386,0 1.818,0.283 1.818,1.52 0,1.371 -0.462,1.728 -1.878,1.744 l -1.892,0 0,-3.249 L 0,0 z m -1.952,7.51 0,-2.891 1.863,0 c 1.251,0 1.669,0.298 1.669,1.476 0,1.147 -0.447,1.415 -1.818,1.415 l -1.714,0 z M 1.609,3.919 c 1.55,-0.134 2.072,-1.103 2.072,-2.742 0,-2.116 -0.969,-2.682 -3.368,-2.682 -1.877,0 -2.861,0.015 -4.098,0.119 l 0,10.282 c 1.102,0.104 1.997,0.12 3.636,0.12 2.593,0 3.517,-0.567 3.517,-2.683 0,-1.476 -0.507,-2.235 -1.759,-2.354 l 0,-0.06 z"
             style="fill:#ffffff;fill-opacity:1;fill-rule:nonzero;stroke:none"
             id="path3034" /></g><g
           id="g3036"
           transform="translate(103.7838,8.0367)"><path
             d="m 0,0 c 0,-2.861 0.536,-3.74 2.265,-3.74 1.743,0 2.28,0.879 2.28,3.74 0,2.861 -0.537,3.74 -2.28,3.74 C 0.536,3.74 0,2.861 0,0 m 6.512,0 c 0,-4.083 -1.103,-5.335 -4.247,-5.335 -3.129,0 -4.232,1.252 -4.232,5.335 0,4.083 1.103,5.335 4.232,5.335 3.144,0 4.247,-1.252 4.247,-5.335"
             style="fill:#ffffff;fill-opacity:1;fill-rule:nonzero;stroke:none"
             id="path3038" /></g><g
           id="g3040"
           transform="translate(120.5895,3.5816)"><path
             d="m 0,0 c 0,-0.447 -0.238,-0.686 -0.686,-0.686 l -1.475,0 c -0.402,0 -0.61,0.179 -0.775,0.566 l -2.89,6.304 c -0.195,0.417 -0.507,1.057 -0.611,1.535 l -0.179,0 c 0.074,-0.522 0.09,-1.043 0.09,-1.55 l 0,-6.855 -1.833,0 0,9.597 c 0,0.446 0.253,0.685 0.7,0.685 l 1.445,0 c 0.402,0 0.596,-0.179 0.776,-0.566 l 2.8,-6.125 c 0.195,-0.447 0.492,-1.072 0.716,-1.624 l 0.179,0 C -1.788,1.848 -1.817,2.398 -1.817,2.95 l 0,6.646 L 0,9.596 0,0 z"
             style="fill:#ffffff;fill-opacity:1;fill-rule:nonzero;stroke:none"
             id="path3042" /></g><g
           id="g3044"
           transform="translate(131.2418,3.5816)"><path
             d="m 0,0 c 0,-0.447 -0.239,-0.686 -0.686,-0.686 l -1.475,0 c -0.402,0 -0.611,0.179 -0.775,0.566 l -2.891,6.304 c -0.193,0.417 -0.506,1.057 -0.61,1.535 l -0.179,0 c 0.074,-0.522 0.089,-1.043 0.089,-1.55 l 0,-6.855 -1.833,0 0,9.597 c 0,0.446 0.254,0.685 0.7,0.685 l 1.446,0 c 0.402,0 0.596,-0.179 0.775,-0.566 l 2.801,-6.125 c 0.194,-0.447 0.492,-1.072 0.715,-1.624 l 0.179,0 C -1.789,1.848 -1.818,2.398 -1.818,2.95 l 0,6.646 L 0,9.596 0,0 z"
             style="fill:#ffffff;fill-opacity:1;fill-rule:nonzero;stroke:none"
             id="path3046" /></g><g
           id="g3048"
           transform="translate(7.5734,6.8618)"><path
             d="m 0,0 c 0,-3.011 -0.999,-4.159 -3.727,-4.159 -2.817,0 -3.846,1.148 -3.846,4.159 l 0,6.321 1.491,0 0,-6.321 c 0,-2.116 0.582,-2.832 2.295,-2.832 1.685,0 2.296,0.716 2.296,2.832 l 0,6.321 L 0,6.321 0,0 z"
             style="fill:#949387;fill-opacity:1;fill-rule:nonzero;stroke:none"
             id="path3050" /></g><g
           id="g3052"
           transform="translate(18.0587,3.4781)"><path
             d="m 0,0 c 0,-0.388 -0.194,-0.581 -0.552,-0.581 l -1.416,0 c -0.328,0 -0.507,0.148 -0.641,0.461 l -3.205,7.008 c -0.179,0.386 -0.492,0.998 -0.611,1.43 l -0.209,0 C -6.574,7.842 -6.56,7.35 -6.56,6.888 l 0,-7.469 -1.49,0 0,9.704 c 0,0.388 0.208,0.582 0.567,0.582 l 1.371,0 c 0.328,0 0.506,-0.149 0.655,-0.462 L -2.34,2.415 c 0.193,-0.418 0.491,-1.014 0.715,-1.536 l 0.224,0 c -0.045,0.537 -0.075,1.058 -0.075,1.596 l 0,7.23 L 0,9.705 0,0 z"
             style="fill:#949387;fill-opacity:1;fill-rule:nonzero;stroke:none"
             id="path3054" /></g><path
           d="m 20.569,13.183 1.491,0 0,-10.286 -1.491,0 0,10.286 z"
           style="fill:#949387;fill-opacity:1;fill-rule:nonzero;stroke:none"
           id="path3056" /><g
           id="g3058"
           transform="translate(29.1725,3.314)"><path
             d="m 0,0 c -0.074,-0.238 -0.298,-0.417 -0.566,-0.417 l -1.461,0 c -0.269,0 -0.492,0.179 -0.567,0.417 l -3.041,9.869 1.535,0 2.326,-8.006 C -1.669,1.491 -1.58,1.103 -1.49,0.73 l 0.402,0 c 0.075,0.373 0.179,0.761 0.283,1.133 l 2.311,8.006 1.536,0 L 0,0 z"
             style="fill:#949387;fill-opacity:1;fill-rule:nonzero;stroke:none"
             id="path3060" /></g><g
           id="g3062"
           transform="translate(40.091,2.9859)"><path
             d="m 0,0 c -1.357,-0.119 -2.937,-0.119 -4.413,-0.119 -1.282,0 -2.058,0.716 -2.072,1.848 l 0,6.649 c 0.014,1.133 0.804,1.849 2.072,1.849 1.476,0 3.056,0 4.413,-0.12 l -0.075,-1.163 -4.085,0 c -0.596,0 -0.819,-0.253 -0.819,-0.953 l 0,-2.057 4.337,0 0,-1.208 -4.337,0 0,-2.623 c 0,-0.702 0.223,-0.955 0.819,-0.955 l 4.085,0 L 0,0 z"
             style="fill:#949387;fill-opacity:1;fill-rule:nonzero;stroke:none"
             id="path3064" /></g><g
           id="g3066"
           transform="translate(45.6413,8.4126)"><path
             d="M 0,0 C 1.446,0.015 1.923,0.417 1.923,1.833 1.923,3.25 1.446,3.622 0,3.622 c -0.806,0 -1.521,0 -2.087,-0.015 L -2.087,0 0,0 z M 2.206,-5.516 1.327,-2.311 C 1.088,-1.565 0.686,-1.282 0.03,-1.282 l -2.117,0.014 0,-4.248 -1.476,0 0,10.287 c 1.133,0.119 1.908,0.133 3.593,0.133 2.415,0 3.398,-0.671 3.398,-2.981 0,-1.625 -0.522,-2.445 -1.892,-2.624 l 0,-0.074 c 0.506,-0.15 1.072,-0.597 1.297,-1.491 l 0.968,-3.25 -1.595,0 z"
             style="fill:#949387;fill-opacity:1;fill-rule:nonzero;stroke:none"
             id="path3068" /></g><g
           id="g3070"
           transform="translate(57.3488,13.0484)"><path
             d="m 0,0 -0.09,-1.088 c -0.864,0.029 -1.983,0.074 -2.951,0.074 -1.402,0 -1.938,-0.059 -1.938,-1.43 0,-1.059 0.373,-1.342 1.237,-1.566 L -1.7,-4.576 c 1.596,-0.433 2.087,-1.387 2.087,-2.922 0,-2.37 -1.029,-2.833 -3.503,-2.833 -0.656,0 -1.804,0.03 -3.235,0.299 l 0.104,1.102 c 1.864,-0.059 2.386,-0.074 3.161,-0.074 1.505,0.015 1.953,0.238 1.953,1.521 0,1.118 -0.388,1.356 -1.222,1.58 l -2.088,0.581 c -1.505,0.418 -2.042,1.356 -2.042,2.923 0,2.384 1.059,2.712 3.383,2.712 C -2.132,0.313 -1.044,0.254 0,0"
             style="fill:#949387;fill-opacity:1;fill-rule:nonzero;stroke:none"
             id="path3072" /></g><path
           d="m 59.723,13.183 1.491,0 0,-10.286 -1.491,0 0,10.286 z"
           style="fill:#949387;fill-opacity:1;fill-rule:nonzero;stroke:none"
           id="path3074" /><g
           id="g3076"
           transform="translate(67.5666,11.856)"><path
             d="m 0,0 0,-8.959 -1.505,0 0,8.959 -3.236,0 0,1.327 8.006,0 L 3.265,0 0,0 z"
             style="fill:#949387;fill-opacity:1;fill-rule:nonzero;stroke:none"
             id="path3078" /></g><g
           id="g3080"
           transform="translate(76.068,14.3003)"><path
             d="m 0,0 c -0.268,0 -0.388,0.12 -0.388,0.402 l 0,0.806 c 0,0.238 0.12,0.402 0.388,0.402 l 0.478,0 C 0.731,1.61 0.88,1.446 0.88,1.208 l 0,-0.806 C 0.88,0.12 0.731,0 0.478,0 L 0,0 z m -0.641,-3.101 c -0.074,0.269 -0.178,0.568 -0.238,0.835 l -0.402,0 c -0.09,-0.267 -0.179,-0.566 -0.254,-0.835 l -1.193,-3.905 3.294,0 -1.207,3.905 z M -2.638,0 c -0.269,0 -0.388,0.12 -0.388,0.402 l 0,0.806 c 0,0.238 0.119,0.402 0.388,0.402 l 0.477,0 c 0.268,0 0.388,-0.164 0.388,-0.402 l 0,-0.806 C -1.773,0.12 -1.893,0 -2.161,0 l -0.477,0 z m -0.492,-8.303 -0.954,-3.1 -1.536,0 3.235,9.883 c 0.06,0.253 0.283,0.403 0.537,0.403 l 1.521,0 c 0.267,0 0.476,-0.15 0.552,-0.403 l 3.234,-9.883 -1.535,0 -0.954,3.1 -4.1,0 z"
             style="fill:#949387;fill-opacity:1;fill-rule:nonzero;stroke:none"
             id="path3082" /></g><g
           id="g3084"
           transform="translate(83.8835,11.856)"><path
             d="m 0,0 0,-8.959 -1.505,0 0,8.959 -3.234,0 0,1.327 8.005,0 L 3.266,0 0,0 z"
             style="fill:#949387;fill-opacity:1;fill-rule:nonzero;stroke:none"
             id="path3086" /></g></g></g></g></svg>